# xmcd
#
# Track frame offsets:
# 150
# 13522
# 27915
# 40225
# 55015
# 71349
# 86745
# 102664
# 115505
# 126575
# 135707
# 152676
#
# Disc length: 2198 seconds
#
# Revision: 0
# Processed by: cddbd v1.5.2PL0 Copyright (c) Steve Scherf et al.
# Submitted via: Axialis_AX_CDPlayer 2.6
#
DISCID=9c08940c
DTITLE=George Strait - Troubadour
DYEAR=1900
DGENRE=
TTITLE0=Troubadour
TTITLE1=It Was Me
TTITLE2=Brothers Of The Highway
TTITLE3=River Of Love
TTITLE4=House Of Cash
TTITLE5=I Saw God Today
TTITLE6=Give Me More Time
TTITLE7=When You're In Love
TTITLE8=Make Her Fall In Love With Me Song
TTITLE9=West Texas Town
TTITLE10=House With No Doors
TTITLE11=If Heartaches Were Horses
EXTD=www.georgestraitfans.com
EXTT0=
EXTT1=
EXTT2=
EXTT3=
EXTT4=(Duet With Patty Loveless)
EXTT5=
EXTT6=
EXTT7=
EXTT8=
EXTT9=(Duet With Dean Dillon)
EXTT10=
EXTT11=
PLAYORDER=
